# xmcd
#
# Track frame offsets:
#	150
#	13572
#	30710
#	46039
#	58785
#	70945
#	87930
#	102367
#	117402
#	132665
#	141742
#	158770
#	170805
#	181534
#	195640
#	213592
#	225859
#	242392
#	258530
#	269972
#
# Disc length: 3775 seconds
#
# Revision: 0
# Processed by: cddbd v1.5.2PL0 Copyright (c) Steve Scherf et al.
# Submitted via: EasyCDDAExtractor 10.5.1.1
#
DISCID=240ebd14
DTITLE=Ahti Lampi - El‰m‰n valttikortit
DYEAR=1997
DGENRE=Pop
TTITLE0=El‰m‰n valttikortit
TTITLE1=Rakkaus on pett‰v‰‰
TTITLE2=Onnenonkija
TTITLE3=Laulurasta
TTITLE4=Niinkuin kukka aurinkoon
TTITLE5=kohtalon t‰hti
TTITLE6=balladi katumaj‰rvest‰
TTITLE7=Punaposki
TTITLE8=Kahta en vaihtaisi
TTITLE9=Rakastaa - unohtaa
TTITLE10=Kannaksen poikia
TTITLE11=Kaunisp‰‰
TTITLE12=Haudassa hulivili huilailee
TTITLE13=Kuin hauras j‰‰
TTITLE14=Kaksi luonnonlasta
TTITLE15=Yksi on  yli muiden
TTITLE16=Olit ensimm‰inen
TTITLE17=Tuhlari
TTITLE18=Ei tullut suomesta suurta
TTITLE19=Sulle kukkia viel‰kin kannan
EXTD=
EXTT0=
EXTT1=
EXTT2=
EXTT3=
EXTT4=
EXTT5=
EXTT6=
EXTT7=
EXTT8=
EXTT9=
EXTT10=
EXTT11=
EXTT12=
EXTT13=
EXTT14=
EXTT15=
EXTT16=
EXTT17=
EXTT18=
EXTT19=
PLAYORDER=
